<svg width="20" height="20" viewBox="0 0 20 20" fill="none" xmlns="http://www.w3.org/2000/svg">
<rect width="19.8445" height="19.8453" rx="8.26855" fill="#F2F7FC"/>
<path d="M4.95976 4.13501C4.95954 4.5736 4.7851 4.99414 4.47482 5.30411C4.16453 5.61409 3.74382 5.78811 3.30523 5.78789C2.86664 5.78767 2.4461 5.61323 2.13612 5.30294C1.82614 4.99266 1.65212 4.57194 1.65234 4.13335C1.65256 3.69476 1.827 3.27422 2.13729 2.96424C2.44757 2.65427 2.86829 2.48025 3.30688 2.48047C3.74547 2.48069 4.16601 2.65513 4.47599 2.96541C4.78596 3.2757 4.95998 3.69641 4.95976 4.13501ZM5.00938 7.01246H1.70196V17.3647H5.00938V7.01246ZM10.2351 7.01246H6.94422V17.3647H10.202V11.9322C10.202 8.90596 14.1461 8.62483 14.1461 11.9322V17.3647H17.4122V10.8077C17.4122 5.70603 11.5746 5.89621 10.202 8.40158L10.2351 7.01246Z" fill="#0077B5"/>
</svg>
